<?xml version="1.0" encoding="utf-8"?>
<!-- Generator: Adobe Illustrator 27.6.1, SVG Export Plug-In . SVG Version: 6.00 Build 0)  -->
<svg version="1.1" id="Layer_1" xmlns="http://www.w3.org/2000/svg" xmlns:xlink="http://www.w3.org/1999/xlink" x="0px" y="0px"
	 viewBox="0 0 1153.7 376.1" style="enable-background:new 0 0 1153.7 376.1;" xml:space="preserve">
<style type="text/css">
	.st0{fill:#FFFFFF;}
</style>
<g>
	<g>
		<g>
			<path class="st0" d="M0,288.2c0-65,0-130,0-194.9C-0.7,39.1,33.5-0.1,88.5,0c51.4,0.1,89.2,33.5,88.2,86.3
				c-0.2,60.2-0.3,120.3-0.5,180.5c0.4,53.7-37.3,90.7-88.4,99.2C34.2,374.9-1,342.1,0,288.2z M118.1,276.5
				c0.1-63.9,0.3-127.8,0.4-191.7c0.1-25.1-11.6-34.4-30.1-34c-18.5,0.4-30.2,10.5-30.2,36.2c-0.1,65.6-0.2,131.2-0.2,196.8
				c0,25.8,11.5,33.8,30,31.3C106.4,312.6,118,301.6,118.1,276.5z"/>
		</g>
		<g>
			<path class="st0" d="M216.1,4.8c23.3,0,35-0.1,58.3-0.1c-0.3,95-0.5,189.9-0.8,284.9c32-2.7,64-4.9,96-6.8
				c0,18.5-0.1,27.8-0.1,46.4c-51.6,3.7-103,8.4-154.3,14.1C215.5,230.5,215.8,117.7,216.1,4.8z"/>
		</g>
		<g>
			<path class="st0" d="M398.3,4.6c23.3,0,35,0,58.3,0c-0.2,106.7-0.3,213.4-0.5,320.1c-23.4,0.9-35.1,1.5-58.5,2.8
				C397.9,219.9,398.1,112.2,398.3,4.6z"/>
		</g>
		<g>
			<path class="st0" d="M500.1,4.6c51.4,0,102.8,0,154.2,0c0,18.2,0,27.3,0,45.5c-32-0.1-64-0.2-95.9-0.1c0,29.5,0,59,0,88.5
				c25.1,0,50.2,0,75.4,0.2c0,18.2,0,27.3,0,45.5c-25.1-0.2-50.3-0.3-75.4-0.3c0,46.2,0,92.3,0,138.5c-23.4,0.1-35.1,0.3-58.5,0.9
				C499.8,217.1,499.9,110.8,500.1,4.6z"/>
		</g>
		<g>
			<path class="st0" d="M682.3,4.6c23.3,0,35,0,58.3,0c0.2,92,0.4,184,0.6,276.1c32.1,1.5,64.1,3.3,96.1,5.6
				c0.1,18.8,0.1,28.2,0.1,46.9c-51.5-4.1-103-7.1-154.6-9.1C682.6,217.6,682.4,111.1,682.3,4.6z"/>
		</g>
		<g>
			<path class="st0" d="M864.5,4.7c23.3,0,35,0,58.3,0.1c0.3,112.3,0.6,224.6,1,336.9c-23.3-2.6-35-3.8-58.3-6
				C865.1,225.4,864.8,115.1,864.5,4.7z"/>
		</g>
		<g>
			<path class="st0" d="M1018,175.4c-21.1-57-42.6-113.8-64.5-170.5c24.6,0,36.9,0.1,61.4,0.1c13.3,38.1,26.4,76.2,39.4,114.4
				c0.4,0,0.6,0,1.1,0.1c13.5-38,26.8-76.1,40-114.3c22,0.1,33.1,0.1,55.1,0.1c-20.9,58.6-42.1,117-63.9,175.3
				c23,64.9,45.3,130.1,67,195.5c-24.4-4.6-36.6-6.8-61-10.8c-13.8-43.4-28-86.7-42.4-130c-0.4,0-0.6-0.1-1.1-0.1
				c-14.2,39-28.5,77.9-43,116.8c-22-3.1-33-4.5-55-7.1C973.9,288.5,996.1,232,1018,175.4z"/>
		</g>
	</g>
</g>
</svg>
