<?xml version="1.0" encoding="utf-8"?>
<!-- Generator: Adobe Illustrator 27.6.1, SVG Export Plug-In . SVG Version: 6.00 Build 0)  -->
<svg version="1.1" xmlns="http://www.w3.org/2000/svg" xmlns:xlink="http://www.w3.org/1999/xlink" x="0px" y="0px"
	 viewBox="0 0 1646 393.4" style="enable-background:new 0 0 1646 393.4;" xml:space="preserve">
<style type="text/css">
	.st0{fill:#FFFFFF;}
	.st1{fill:url(#SVGID_1_);}
	.st2{fill:url(#SVGID_00000121238558879854003740000012034780039960973999_);}
	.st3{fill:url(#SVGID_00000166656522428949545420000009366537071477230481_);}
	.st4{opacity:0.56;fill:url(#SVGID_00000092451805521765236780000003931331672541483944_);}
	.st5{fill:url(#SVGID_00000144333500863179098910000007641310374156033683_);}
</style>
<g id="Layer_2">
</g>
<g id="Layer_3">
	<circle class="st0" cx="196.7" cy="196.7" r="196.7"/>
	<linearGradient id="SVGID_1_" gradientUnits="userSpaceOnUse" x1="196.7128" y1="-8.0997" x2="196.7128" y2="388.581">
		<stop  offset="0" style="stop-color:#FF865C"/>
		<stop  offset="0.2362" style="stop-color:#E01C74"/>
		<stop  offset="0.3188" style="stop-color:#BC1976"/>
		<stop  offset="0.4978" style="stop-color:#62127A"/>
		<stop  offset="0.5819" style="stop-color:#421E89"/>
		<stop  offset="0.7629" style="stop-color:#0038A7"/>
		<stop  offset="1" style="stop-color:#5703C7"/>
	</linearGradient>
	<circle class="st1" cx="196.7" cy="196.7" r="186.4"/>
	
		<linearGradient id="SVGID_00000124120964683424669050000000998381222991562663_" gradientUnits="userSpaceOnUse" x1="196.3733" y1="72.6606" x2="196.3733" y2="319.7947">
		<stop  offset="0" style="stop-color:#F881B9"/>
		<stop  offset="0.2998" style="stop-color:#E2A5DD"/>
		<stop  offset="0.3973" style="stop-color:#DAB2EA"/>
		<stop  offset="0.5523" style="stop-color:#99B7F1"/>
		<stop  offset="0.7177" style="stop-color:#57BCF9"/>
		<stop  offset="1" style="stop-color:#624AEB"/>
	</linearGradient>
	<path style="fill:url(#SVGID_00000124120964683424669050000000998381222991562663_);" d="M196.4,70.3C126.6,70.3,70,126.9,70,196.7
		S126.6,323,196.4,323s126.3-56.6,126.3-126.3S266.1,70.3,196.4,70.3z M196.7,314.3C132,314.3,79.5,261.8,79.5,197
		S132,79.8,196.7,79.8S314,132.3,314,197S261.5,314.3,196.7,314.3z"/>
	
		<linearGradient id="SVGID_00000036964979836263246770000007298538141696960420_" gradientUnits="userSpaceOnUse" x1="196.7128" y1="303.844" x2="196.7128" y2="99.7243">
		<stop  offset="0" style="stop-color:#6EF2FE"/>
		<stop  offset="6.486487e-02" style="stop-color:#83F4FE"/>
		<stop  offset="0.1983" style="stop-color:#A9F7FE"/>
		<stop  offset="0.3376" style="stop-color:#C8FAFF"/>
		<stop  offset="0.4823" style="stop-color:#E0FCFF"/>
		<stop  offset="0.6345" style="stop-color:#F2FEFF"/>
		<stop  offset="0.7994" style="stop-color:#FCFFFF"/>
		<stop  offset="1" style="stop-color:#FFFFFF"/>
	</linearGradient>
	<path style="fill:url(#SVGID_00000036964979836263246770000007298538141696960420_);" d="M196.7,87.4
		c-60.3,0-109.2,48.9-109.2,109.2s48.9,109.2,109.2,109.2S305.9,257,305.9,196.7S257,87.4,196.7,87.4z M196.7,279.5
		c-45.7,0-82.8-37.1-82.8-82.8s37.1-82.8,82.8-82.8s82.8,37.1,82.8,82.8S242.4,279.5,196.7,279.5z"/>
	
		<linearGradient id="SVGID_00000093887485275230296370000009424989734064854689_" gradientUnits="userSpaceOnUse" x1="196.7128" y1="123.5138" x2="196.7128" y2="270.1693">
		<stop  offset="0" style="stop-color:#00F2FC;stop-opacity:0"/>
		<stop  offset="1" style="stop-color:#00F0FB"/>
	</linearGradient>
	
		<circle style="opacity:0.56;fill:url(#SVGID_00000093887485275230296370000009424989734064854689_);" cx="196.7" cy="196.7" r="75.5"/>
	
		<linearGradient id="SVGID_00000068673296945212787380000006341632973313257861_" gradientUnits="userSpaceOnUse" x1="196.9098" y1="132.4312" x2="196.9098" y2="260.6312">
		<stop  offset="0" style="stop-color:#6B094D"/>
		<stop  offset="0.3237" style="stop-color:#471A6A"/>
		<stop  offset="1" style="stop-color:#003BA5"/>
	</linearGradient>
	<circle style="fill:url(#SVGID_00000068673296945212787380000006341632973313257861_);" cx="196.9" cy="196.7" r="66.7"/>
</g>
<g id="Layer_1">
	<g>
		<g>
			<g>
				<path class="st0" d="M492.3,301.1c0-65,0-130,0-194.9C491.5,52,525.8,12.9,580.7,13c51.4,0.1,89.2,33.5,88.2,86.3
					c-0.2,60.2-0.3,120.3-0.5,180.5c0.4,53.7-37.3,90.7-88.4,99.2C526.5,387.9,491.3,355.1,492.3,301.1z M610.3,289.4
					c0.1-63.9,0.3-127.8,0.4-191.7c0.1-25.1-11.6-34.4-30.1-34c-18.5,0.4-30.2,10.5-30.2,36.2c-0.1,65.6-0.2,131.2-0.2,196.8
					c0,25.8,11.5,33.8,30,31.3C598.7,325.5,610.3,314.5,610.3,289.4z"/>
			</g>
			<g>
				<path class="st0" d="M708.4,17.8c23.3,0,35-0.1,58.3-0.1c-0.3,95-0.5,189.9-0.8,284.9c32-2.7,64-4.9,96-6.8
					c0,18.5-0.1,27.8-0.1,46.4c-51.6,3.7-103,8.4-154.3,14.1C707.7,243.5,708.1,130.6,708.4,17.8z"/>
			</g>
			<g>
				<path class="st0" d="M890.6,17.6c23.3,0,35,0,58.3,0c-0.2,106.7-0.3,213.4-0.5,320.1c-23.4,0.9-35.1,1.5-58.5,2.8
					C890.1,232.8,890.4,125.2,890.6,17.6z"/>
			</g>
			<g>
				<path class="st0" d="M992.3,17.5c51.4,0,102.8,0,154.2,0c0,18.2,0,27.3,0,45.5c-32-0.1-64-0.2-95.9-0.1c0,29.5,0,59,0,88.5
					c25.1,0,50.2,0,75.4,0.2c0,18.2,0,27.3,0,45.5c-25.1-0.2-50.3-0.3-75.4-0.3c0,46.2,0,92.3,0,138.5c-23.4,0.1-35.1,0.3-58.5,0.9
					C992.1,230,992.2,123.8,992.3,17.5z"/>
			</g>
			<g>
				<path class="st0" d="M1174.5,17.5c23.3,0,35,0,58.3,0c0.2,92,0.4,184,0.6,276.1c32.1,1.5,64.1,3.3,96.1,5.6
					c0.1,18.8,0.1,28.2,0.1,46.9c-51.5-4.1-103-7.1-154.6-9.1C1174.8,230.6,1174.7,124.1,1174.5,17.5z"/>
			</g>
			<g>
				<path class="st0" d="M1356.8,17.7c23.3,0,35,0,58.3,0.1c0.3,112.3,0.6,224.6,1,336.9c-23.3-2.6-35-3.8-58.3-6
					C1357.4,238.3,1357.1,128,1356.8,17.7z"/>
			</g>
			<g>
				<path class="st0" d="M1510.3,188.3c-21.1-57-42.6-113.8-64.5-170.5c24.6,0,36.9,0.1,61.4,0.1c13.3,38.1,26.4,76.2,39.4,114.4
					c0.4,0,0.6,0,1.1,0.1c13.5-38,26.8-76.1,40-114.3c22,0.1,33.1,0.1,55.1,0.1c-20.9,58.6-42.1,117-63.9,175.3
					c23,64.9,45.3,130.1,67,195.5c-24.4-4.6-36.6-6.8-61-10.8c-13.8-43.4-28-86.7-42.4-130c-0.4,0-0.6-0.1-1.1-0.1
					c-14.2,39-28.5,77.9-43,116.8c-22-3.1-33-4.5-55-7.1C1466.1,301.5,1488.4,245,1510.3,188.3z"/>
			</g>
		</g>
	</g>
</g>
</svg>
