<?xml version="1.0" encoding="utf-8"?>
<!-- Generator: Adobe Illustrator 27.6.1, SVG Export Plug-In . SVG Version: 6.00 Build 0)  -->
<svg version="1.1" id="Layer_1" xmlns="http://www.w3.org/2000/svg" xmlns:xlink="http://www.w3.org/1999/xlink" x="0px" y="0px"
	 viewBox="0 0 393.3 392.9" style="enable-background:new 0 0 393.3 392.9;" xml:space="preserve">
<style type="text/css">
	.st0{fill:#FFFFFF;}
	.st1{fill:url(#SVGID_1_);}
	.st2{fill:url(#SVGID_00000102540684550835234900000006036430376639214976_);}
	.st3{fill:url(#SVGID_00000083082487061978430910000003576873479141486735_);}
	.st4{opacity:0.56;fill:url(#SVGID_00000078758858772607491660000005088164018741141637_);}
	.st5{fill:url(#SVGID_00000054980145683575096960000000487886874614504868_);}
</style>
<circle class="st0" cx="196.6" cy="196.5" r="196.7"/>
<linearGradient id="SVGID_1_" gradientUnits="userSpaceOnUse" x1="196.6303" y1="-8.2693" x2="196.6303" y2="388.4114">
	<stop  offset="0" style="stop-color:#F5865F"/>
	<stop  offset="0.2362" style="stop-color:#E01E75"/>
	<stop  offset="0.2971" style="stop-color:#C32175"/>
	<stop  offset="0.4318" style="stop-color:#822777"/>
	<stop  offset="0.4978" style="stop-color:#612978"/>
	<stop  offset="0.7629" style="stop-color:#1E429B"/>
	<stop  offset="1" style="stop-color:#59449B"/>
</linearGradient>
<circle class="st1" cx="196.6" cy="196.5" r="186.4"/>
<linearGradient id="SVGID_00000131336849221188442420000006870744326154902668_" gradientUnits="userSpaceOnUse" x1="196.2909" y1="72.491" x2="196.2909" y2="319.6252">
	<stop  offset="0" style="stop-color:#F282B4"/>
	<stop  offset="0.194" style="stop-color:#E399C2"/>
	<stop  offset="0.3973" style="stop-color:#D3B3D5"/>
	<stop  offset="0.5084" style="stop-color:#B1B6DC"/>
	<stop  offset="0.7177" style="stop-color:#66B9E8"/>
	<stop  offset="1" style="stop-color:#5F5CA8"/>
</linearGradient>
<path style="fill:url(#SVGID_00000131336849221188442420000006870744326154902668_);" d="M196.3,70.2C126.5,70.2,70,126.7,70,196.5
	s56.6,126.3,126.3,126.3s126.3-56.6,126.3-126.3S266.1,70.2,196.3,70.2z M196.6,314.1c-64.8,0-117.2-52.5-117.2-117.2
	S131.9,79.6,196.6,79.6s117.2,52.5,117.2,117.2S261.4,314.1,196.6,314.1z"/>
<linearGradient id="SVGID_00000124840446456903882020000012457707286742321028_" gradientUnits="userSpaceOnUse" x1="196.6303" y1="303.6744" x2="196.6303" y2="99.5547">
	<stop  offset="0" style="stop-color:#8BD5E8"/>
	<stop  offset="9.199536e-02" style="stop-color:#A3DDEC"/>
	<stop  offset="0.2486" style="stop-color:#C4E8F2"/>
	<stop  offset="0.4126" style="stop-color:#DDF1F7"/>
	<stop  offset="0.5853" style="stop-color:#EEF8FB"/>
	<stop  offset="0.7724" style="stop-color:#FAFDFE"/>
	<stop  offset="1" style="stop-color:#FFFFFF"/>
</linearGradient>
<path style="fill:url(#SVGID_00000124840446456903882020000012457707286742321028_);" d="M196.6,87.3
	c-60.3,0-109.2,48.9-109.2,109.2s48.9,109.2,109.2,109.2s109.2-48.9,109.2-109.2S257,87.3,196.6,87.3z M196.6,279.3
	c-45.7,0-82.8-37.1-82.8-82.8s37.1-82.8,82.8-82.8s82.8,37.1,82.8,82.8S242.4,279.3,196.6,279.3z"/>
<linearGradient id="SVGID_00000141413274726948898160000003521950441087091349_" gradientUnits="userSpaceOnUse" x1="196.6303" y1="123.3442" x2="196.6303" y2="269.9998">
	<stop  offset="0" style="stop-color:#68CBE0;stop-opacity:0"/>
	<stop  offset="1" style="stop-color:#67CBE0"/>
</linearGradient>
<circle style="opacity:0.56;fill:url(#SVGID_00000141413274726948898160000003521950441087091349_);" cx="196.6" cy="196.5" r="75.5"/>
<linearGradient id="SVGID_00000026124526443681735950000013531053112691982772_" gradientUnits="userSpaceOnUse" x1="196.8274" y1="132.2616" x2="196.8274" y2="260.4616">
	<stop  offset="0" style="stop-color:#6B174E"/>
	<stop  offset="0.4067" style="stop-color:#5C2C6C"/>
	<stop  offset="1" style="stop-color:#1D439C"/>
</linearGradient>
<circle style="fill:url(#SVGID_00000026124526443681735950000013531053112691982772_);" cx="196.8" cy="196.5" r="66.7"/>
</svg>
