<svg version="1.1" id="Layer_1" xmlns="http://www.w3.org/2000/svg" x="0" y="0" viewBox="0 0 96 96" style="enable-background:new 0 0 96 96" xml:space="preserve"><circle cx="52" cy="52" r="28" style="fill:#131928"/><linearGradient id="SVGID_1_" gradientUnits="userSpaceOnUse" x1="24.018" y1="-92" x2="93.518" y2="-161.5" gradientTransform="matrix(1 0 0 -1 0 -68)"><stop offset="0" style="stop-color:#c395fc"/><stop offset="1" style="stop-color:#4f65f5"/></linearGradient><path d="M48 96c26.5 0 48-21.5 48-48S74.5 0 48 0 0 21.5 0 48s21.5 48 48 48zm32-44c0 15.5-12.5 28-28 28S24 67.5 24 52c0-2.9.4-5.6 1.2-8.2C27.4 48.6 32.3 52 38 52c7.7 0 14-6.3 14-14 0-5.7-3.4-10.6-8.2-12.8 2.6-.8 5.4-1.2 8.2-1.2 15.5 0 28 12.5 28 28z" style="fill-rule:evenodd;clip-rule:evenodd;fill:url(#SVGID_1_)"/><path d="M80 52c0 15.5-12.5 28-28 28-15.1 0-27.5-12-28-27v1c0 16.6 13.4 30 30 30s30-13.4 30-30-13.4-30-30-30h-1c15 .5 27 12.9 27 28z" style="opacity:.2;fill-rule:evenodd;clip-rule:evenodd;fill:#131928;enable-background:new"/><linearGradient id="SVGID_00000158734959589555238010000008734170587956731525_" gradientUnits="userSpaceOnUse" x1="28.018" y1="-76" x2="28.018" y2="-116" gradientTransform="matrix(1 0 0 -1 0 -68)"><stop offset="0" style="stop-color:#fff;stop-opacity:.4"/><stop offset="1" style="stop-color:#fff;stop-opacity:0"/></linearGradient><path style="fill-rule:evenodd;clip-rule:evenodd;fill:url(#SVGID_00000158734959589555238010000008734170587956731525_)" d="M48 12c-19.9 0-36 16.1-36 36 0 2.2-1.8 4-4 4s-4-1.8-4-4C4 23.7 23.7 4 48 4c2.2 0 4 1.8 4 4s-1.8 4-4 4z"/></svg>