<?xml version="1.0" encoding="utf-8"?>
<!-- Generator: Adobe Illustrator 27.6.1, SVG Export Plug-In . SVG Version: 6.00 Build 0)  -->
<svg version="1.1" id="Layer_1" xmlns="http://www.w3.org/2000/svg" xmlns:xlink="http://www.w3.org/1999/xlink" x="0px" y="0px"
	 viewBox="0 0 1024 1025" style="enable-background:new 0 0 1024 1025;" xml:space="preserve">
<style type="text/css">
	.st0{fill:#FFFFFF;}
	.st1{fill:#FFC230;}
</style>
<g id="Simple-Logo-Dark">
	<g id="Group-Copy" transform="translate(70 18)">
		<path id="Shape" class="st0" d="M224.7,238.9l5.7,543.1c-45.4,5.7-79.4-17.2-79.4-62.9l-5.7-451.6
			c0-142.9,130.5-177.2,209.9-120.1L758,381.8c56.7,40,68.1,114.3,39.7,165.8c-5.7-40-22.7-62.9-56.7-85.8L287.1,204.6
			C253.1,181.8,224.7,187.5,224.7,238.9L224.7,238.9z"/>
		<path id="Shape_00000115495222014251807110000010319929115246864264_" class="st0" d="M190.7,810.6c34,11.4,68.1,5.7,96.5-11.4
			l465.3-274.4c28.4,40,22.7,80-11.3,102.9L349.5,856.4C292.8,885,219,856.4,190.7,810.6L190.7,810.6z"/>
		<path id="Shape_00000168102259990888424300000015298397968091007142_" class="st1" d="M326.8,650.6l278-160.1L332.5,336.1
			L326.8,650.6z"/>
	</g>
</g>
</svg>
