<?xml version="1.0" encoding="utf-8"?>
<!-- Generator: Adobe Illustrator 27.6.1, SVG Export Plug-In . SVG Version: 6.00 Build 0)  -->
<svg version="1.1" id="Layer_1" xmlns="http://www.w3.org/2000/svg" xmlns:xlink="http://www.w3.org/1999/xlink" x="0px" y="0px"
	 viewBox="0 0 1004.6 216.9" style="enable-background:new 0 0 1004.6 216.9;" xml:space="preserve">
<style type="text/css">
	.st0{fill:#FFFFFF;}
	.st1{fill-rule:evenodd;clip-rule:evenodd;fill:#EEEEEE;}
	.st2{fill-rule:evenodd;clip-rule:evenodd;fill:#3A3F51;}
	.st3{fill-rule:evenodd;clip-rule:evenodd;fill:#00CCFF;}
	.st4{fill:none;stroke:#00CCFF;stroke-width:2;stroke-miterlimit:1;}
	.st5{fill:none;stroke:#00CCFF;stroke-width:7;stroke-miterlimit:1;}
</style>
<g>
	<path class="st0" d="M325.9,64.6c-0.6,1.1-1.3,1.9-2,2.4c-0.7,0.5-1.6,0.8-2.6,0.8c-1.1,0-2.4-0.5-3.9-1.6s-3.3-2.2-5.4-3.5
		c-2.2-1.3-4.8-2.5-7.8-3.5c-3-1-6.6-1.6-10.9-1.6c-4,0-7.5,0.5-10.4,1.6c-3,1-5.5,2.5-7.5,4.3c-2,1.8-3.5,3.9-4.6,6.3
		c-1,2.4-1.6,5.1-1.6,7.9c0,3.7,0.9,6.7,2.8,9.1c1.9,2.4,4.3,4.4,7.3,6.1s6.5,3.2,10.3,4.4c3.8,1.3,7.8,2.6,11.8,3.9
		c4,1.4,8,2.9,11.8,4.7c3.8,1.8,7.3,4,10.3,6.7c3,2.7,5.5,6,7.3,9.8c1.9,3.9,2.8,8.6,2.8,14.2c0,6-1,11.6-3.1,16.8
		c-2,5.2-5,9.8-8.9,13.7c-3.9,3.9-8.7,7-14.4,9.2c-5.7,2.2-12.2,3.4-19.4,3.4c-4.3,0-8.6-0.4-12.7-1.3c-4.1-0.9-8-2-11.6-3.6
		c-3.7-1.5-7.1-3.4-10.3-5.6c-3.2-2.2-6-4.6-8.6-7.3l5.8-9.6c0.6-0.8,1.2-1.4,2-1.9c0.8-0.5,1.7-0.8,2.7-0.8c1.3,0,2.8,0.7,4.6,2.1
		c1.7,1.4,3.9,2.9,6.4,4.6c2.6,1.7,5.6,3.2,9.2,4.6c3.6,1.4,7.9,2.1,13,2.1c4.2,0,7.9-0.6,11.2-1.7c3.3-1.1,6-2.7,8.3-4.7
		c2.2-2,4-4.5,5.2-7.4c1.2-2.9,1.8-6.1,1.8-9.6c0-4-0.9-7.2-2.7-9.7c-1.8-2.5-4.3-4.6-7.3-6.3c-3-1.7-6.5-3.1-10.3-4.3
		c-3.8-1.2-7.8-2.4-11.8-3.7c-4-1.3-8-2.8-11.8-4.5c-3.8-1.7-7.3-3.9-10.3-6.7c-3-2.7-5.5-6.2-7.3-10.3c-1.8-4.1-2.7-9.2-2.7-15.3
		c0-4.9,0.9-9.5,2.8-14.1c1.9-4.5,4.6-8.6,8.3-12c3.6-3.5,8.1-6.3,13.4-8.4c5.3-2.1,11.3-3.2,18.1-3.2c7.6,0,14.6,1.2,21,3.6
		c6.4,2.4,12,5.9,16.7,10.4L325.9,64.6z"/>
	<path class="st0" d="M485,110.3c0,10.1-1.6,19.5-4.9,27.9c-3.2,8.5-7.8,15.8-13.8,21.9c-5.9,6.1-13,10.9-21.3,14.3
		c-8.3,3.4-17.4,5.1-27.5,5.1c-10,0-19.2-1.7-27.5-5.1c-8.3-3.4-15.4-8.2-21.3-14.3c-5.9-6.1-10.5-13.5-13.8-21.9
		c-3.3-8.5-4.9-17.8-4.9-27.9c0-10.1,1.6-19.4,4.9-27.9c3.3-8.5,7.9-15.8,13.8-22c5.9-6.1,13-10.9,21.3-14.4
		c8.3-3.4,17.4-5.1,27.5-5.1c10.1,0,19.2,1.7,27.5,5.1c8.3,3.4,15.3,8.2,21.3,14.4c5.9,6.1,10.5,13.5,13.8,22
		C483.4,91,485,100.3,485,110.3z M464.4,110.3c0-8.1-1.1-15.3-3.3-21.7c-2.2-6.4-5.3-11.9-9.4-16.3c-4.1-4.5-9-7.9-14.7-10.3
		c-5.8-2.4-12.2-3.6-19.3-3.6c-7.1,0-13.6,1.2-19.3,3.6c-5.8,2.4-10.7,5.8-14.8,10.3c-4.1,4.5-7.2,9.9-9.5,16.3
		c-2.2,6.4-3.3,13.7-3.3,21.7c0,8.1,1.1,15.4,3.3,21.8c2.2,6.4,5.4,11.8,9.5,16.3c4.1,4.5,9,7.9,14.8,10.3
		c5.8,2.4,12.2,3.5,19.3,3.5c7.1,0,13.6-1.2,19.3-3.5c5.8-2.4,10.7-5.8,14.7-10.3c4.1-4.5,7.2-9.9,9.4-16.3
		C463.3,125.7,464.4,118.5,464.4,110.3z"/>
	<path class="st0" d="M621.3,42.5v135.7h-10.2c-1.6,0-2.9-0.3-3.9-0.9c-1-0.6-2.1-1.5-3.2-2.7l-76.6-99.1c0.1,1.7,0.2,3.4,0.3,5
		c0.1,1.6,0.1,3.2,0.1,4.6v93.1h-17.7V42.5h10.4c1.8,0,3.1,0.2,4,0.6c0.9,0.4,1.9,1.3,2.9,2.8l76.8,99.2c-0.2-1.8-0.3-3.6-0.4-5.3
		c-0.1-1.7-0.1-3.4-0.1-4.9V42.5H621.3z"/>
	<path class="st0" d="M766.8,178.2h-15.5c-1.8,0-3.2-0.4-4.3-1.3c-1.1-0.9-2-2-2.5-3.4l-12-31.5h-59.8l-12,31.5
		c-0.4,1.2-1.3,2.3-2.5,3.3c-1.2,1-2.6,1.5-4.3,1.5h-15.5l54.1-135.7h20.3L766.8,178.2z M727,127.6L706.9,75
		c-1.4-3.6-2.9-8.1-4.3-13.6c-0.7,2.7-1.4,5.2-2.1,7.6c-0.7,2.3-1.4,4.4-2.1,6.2l-20,52.4H727z"/>
	<path class="st0" d="M885.5,178.2h-18c-3.6,0-6.2-1.4-7.8-4.3l-33.5-47.1c-1.1-1.6-2.2-2.7-3.5-3.4c-1.3-0.7-3.2-1-5.7-1h-13.1
		v55.7h-20.1V42.5h39.1c8.8,0,16.3,0.9,22.6,2.7c6.3,1.8,11.6,4.3,15.7,7.7c4.1,3.3,7.2,7.3,9.2,12c2,4.7,3,9.9,3,15.7
		c0,4.7-0.7,9.2-2.2,13.3c-1.4,4.2-3.6,7.9-6.4,11.2c-2.8,3.3-6.2,6.2-10.3,8.6c-4,2.4-8.6,4.2-13.7,5.5c2.5,1.5,4.7,3.6,6.5,6.3
		L885.5,178.2z M822.2,107.9c5.2,0,9.7-0.6,13.7-1.9c3.9-1.3,7.2-3,9.9-5.3c2.6-2.3,4.6-5,6-8.2c1.3-3.2,2-6.7,2-10.5
		c0-7.8-2.6-13.7-7.7-17.7c-5.1-4-12.8-6-23.1-6h-19v49.6H822.2z"/>
	<path class="st0" d="M1004.6,178.2h-18c-3.6,0-6.2-1.4-7.8-4.3l-33.5-47.1c-1.1-1.6-2.2-2.7-3.5-3.4c-1.3-0.7-3.2-1-5.7-1H923v55.7
		h-20.1V42.5H942c8.8,0,16.3,0.9,22.6,2.7c6.3,1.8,11.6,4.3,15.7,7.7c4.1,3.3,7.2,7.3,9.2,12c2,4.7,3,9.9,3,15.7
		c0,4.7-0.7,9.2-2.2,13.3c-1.4,4.2-3.6,7.9-6.4,11.2c-2.8,3.3-6.2,6.2-10.3,8.6c-4,2.4-8.6,4.2-13.7,5.5c2.5,1.5,4.7,3.6,6.5,6.3
		L1004.6,178.2z M941.3,107.9c5.2,0,9.7-0.6,13.7-1.9c3.9-1.3,7.2-3,9.9-5.3c2.6-2.3,4.6-5,6-8.2c1.3-3.2,2-6.7,2-10.5
		c0-7.8-2.6-13.7-7.7-17.7c-5.1-4-12.8-6-23.1-6h-19v49.6H941.3z"/>
</g>
<path class="st1" d="M216.7,108.4c0,29.8-10.5,55.4-31.6,76.7c-0.7,0.8-1.5,1.6-2.4,2.3c-3.5,3.4-7.1,6.5-11,9.2
	c-18.3,13.5-39.4,20.2-63.3,20.2c-24,0-45-6.7-63.2-20.2c-4.8-3.4-9.3-7.2-13.5-11.6C15.4,168.9,5.3,150,1.6,128.4
	c-0.7-4.2-1.2-8.5-1.5-12.8C0,113.2,0,110.8,0,108.4c0-2.5,0.1-4.9,0.2-7.2c0-0.2,0.1-0.5,0.2-0.7c1.6-26.6,12-49.6,31.4-68.9
	C53,10.5,78.6,0,108.4,0c29.9,0,55.5,10.5,76.7,31.5C206.2,53,216.7,78.6,216.7,108.4L216.7,108.4z"/>
<path class="st2" d="M194.6,42.5l-22.4,22.4C159.2,78,158,89.4,158,109.5c0,17.9,2.9,34.4,16.2,47.7c9.7,9.7,19,18.9,19,18.9
	c-2.5,3.1-5.2,6.1-8.1,9c-0.7,0.8-1.5,1.6-2.4,2.3c-2.5,2.5-5.2,4.8-7.9,6.9l-17.6-17.6c-15.6-15.6-28-17.1-48.6-17.1
	c-19.8,0-33.2,1.8-47.7,16.3c-8.6,8.6-18.5,18.6-18.5,18.6c-3.8-2.9-7.3-6-10.7-9.5c-2.8-2.8-5.4-5.7-7.9-8.6c0,0,9.8-9.8,19.1-19.2
	c13.9-13.9,16.1-29.9,16.1-47.8c0-17.5-2.9-33.8-15.6-46.5c-8.8-8.8-21-21-21-21c2.8-3.6,5.9-7.1,9.2-10.4c2.9-2.9,5.9-5.6,9-8.1
	l20.4,20.4c13,13,29.7,16.4,47.6,16.4c18.5,0,35.1-3.6,48.6-17.1c8.3-8.3,19.3-19.2,19.3-19.2c2.9,2.4,5.7,4.9,8.5,7.7
	C188.6,35.1,191.7,38.7,194.6,42.5z"/>
<g>
	<path class="st3" d="M78.7,114c-0.2-1.2-0.3-2.3-0.4-3.6c0-0.7-0.1-1.3-0.1-2c0-0.7,0-1.4,0.1-2c0-0.1,0-0.1,0.1-0.2
		c0.4-7.4,3.3-13.7,8.7-19.1c5.9-5.8,13-8.8,21.2-8.8c8.3,0,15.4,2.9,21.2,8.8c5.8,5.9,8.8,13,8.8,21.3s-2.9,15.3-8.8,21.2
		c-0.2,0.2-0.4,0.4-0.6,0.6c-1,0.9-2,1.8-3.1,2.6c-5.1,3.7-10.9,5.6-17.6,5.6s-12.5-1.9-17.5-5.6c-1.3-0.9-2.6-2-3.8-3.2
		C82.5,125.2,79.7,120,78.7,114z"/>
	<path class="st4" d="M157.8,59.8l-15,14.7 M30.8,32.5l40.9,40.7 M156.2,157.5l27.8,28.8 M185.9,32.4l-28.1,27.4 M32.4,185.8
		l27.3-27.4"/>
	<path class="st5" d="M157.8,59.8l-16.9,17.2 M59,60.6l17.2,17.1 M59.6,158.4L76.4,141 M138.3,139.6l18,17.9"/>
</g>
</svg>
