<svg version="1.1" id="Layer_1" xmlns="http://www.w3.org/2000/svg" x="0" y="0" viewBox="0 0 393.3 392.9" style="enable-background:new 0 0 393.3 392.9" xml:space="preserve"><style>.st2{fill:url(#SVGID_00000102540684550835234900000006036430376639214976_)}.st3{fill:url(#SVGID_00000083082487061978430910000003576873479141486735_)}.st4{opacity:.56;fill:url(#SVGID_00000078758858772607491660000005088164018741141637_)}.st5{fill:url(#SVGID_00000054980145683575096960000000487886874614504868_)}</style><circle cx="196.6" cy="196.5" r="196.7" style="fill:#fff"/><linearGradient id="SVGID_1_" gradientUnits="userSpaceOnUse" x1="196.63" y1="-8.269" x2="196.63" y2="388.411"><stop offset="0" style="stop-color:#f5865f"/><stop offset=".236" style="stop-color:#e01e75"/><stop offset=".297" style="stop-color:#c32175"/><stop offset=".432" style="stop-color:#822777"/><stop offset=".498" style="stop-color:#612978"/><stop offset=".763" style="stop-color:#1e429b"/><stop offset="1" style="stop-color:#59449b"/></linearGradient><circle cx="196.6" cy="196.5" r="186.4" style="fill:url(#SVGID_1_)"/><linearGradient id="SVGID_00000131336849221188442420000006870744326154902668_" gradientUnits="userSpaceOnUse" x1="196.291" y1="72.491" x2="196.291" y2="319.625"><stop offset="0" style="stop-color:#f282b4"/><stop offset=".194" style="stop-color:#e399c2"/><stop offset=".397" style="stop-color:#d3b3d5"/><stop offset=".508" style="stop-color:#b1b6dc"/><stop offset=".718" style="stop-color:#66b9e8"/><stop offset="1" style="stop-color:#5f5ca8"/></linearGradient><path style="fill:url(#SVGID_00000131336849221188442420000006870744326154902668_)" d="M196.3 70.2C126.5 70.2 70 126.7 70 196.5s56.6 126.3 126.3 126.3 126.3-56.6 126.3-126.3S266.1 70.2 196.3 70.2zm.3 243.9c-64.8 0-117.2-52.5-117.2-117.2S131.9 79.6 196.6 79.6s117.2 52.5 117.2 117.2-52.4 117.3-117.2 117.3z"/><linearGradient id="SVGID_00000124840446456903882020000012457707286742321028_" gradientUnits="userSpaceOnUse" x1="196.63" y1="303.674" x2="196.63" y2="99.555"><stop offset="0" style="stop-color:#8bd5e8"/><stop offset=".092" style="stop-color:#a3ddec"/><stop offset=".249" style="stop-color:#c4e8f2"/><stop offset=".413" style="stop-color:#ddf1f7"/><stop offset=".585" style="stop-color:#eef8fb"/><stop offset=".772" style="stop-color:#fafdfe"/><stop offset="1" style="stop-color:#fff"/></linearGradient><path style="fill:url(#SVGID_00000124840446456903882020000012457707286742321028_)" d="M196.6 87.3c-60.3 0-109.2 48.9-109.2 109.2s48.9 109.2 109.2 109.2 109.2-48.9 109.2-109.2S257 87.3 196.6 87.3zm0 192c-45.7 0-82.8-37.1-82.8-82.8s37.1-82.8 82.8-82.8 82.8 37.1 82.8 82.8-37 82.8-82.8 82.8z"/><linearGradient id="SVGID_00000141413274726948898160000003521950441087091349_" gradientUnits="userSpaceOnUse" x1="196.63" y1="123.344" x2="196.63" y2="270"><stop offset="0" style="stop-color:#68cbe0;stop-opacity:0"/><stop offset="1" style="stop-color:#67cbe0"/></linearGradient><circle style="opacity:.56;fill:url(#SVGID_00000141413274726948898160000003521950441087091349_)" cx="196.6" cy="196.5" r="75.5"/><linearGradient id="SVGID_00000026124526443681735950000013531053112691982772_" gradientUnits="userSpaceOnUse" x1="196.827" y1="132.262" x2="196.827" y2="260.462"><stop offset="0" style="stop-color:#6b174e"/><stop offset=".407" style="stop-color:#5c2c6c"/><stop offset="1" style="stop-color:#1d439c"/></linearGradient><circle style="fill:url(#SVGID_00000026124526443681735950000013531053112691982772_)" cx="196.8" cy="196.5" r="66.7"/></svg>